<svg width="691" height="392" viewBox="0 0 691 392" fill="none" xmlns="http://www.w3.org/2000/svg">
<g clip-path="url(#clip0_20_6288)">
<path opacity="0.1" d="M691 259.165C691.038 279.085 685.58 298.633 675.223 315.672C675.223 336.51 665.474 355.398 649.661 369.164C645.703 372.611 641.442 375.695 636.928 378.379C636.747 378.493 636.56 378.602 636.373 378.71C636.034 378.909 635.696 379.107 635.352 379.312L635.032 379.498C620.063 387.811 603.193 392.128 586.058 392.03H131.175C99.8087 392.03 71.4136 381.148 50.8407 363.56C30.2677 345.972 17.5893 321.631 17.5893 294.786C6.06909 277.108 -0.042206 256.473 0.000219399 235.395C0.000219399 175.722 47.8628 127.346 106.912 127.346C109.002 127.346 111.074 127.418 113.133 127.533C150.184 64.573 233.756 20.6697 330.847 20.6697C390.536 20.6697 445.097 37.2523 486.889 64.6512C502.721 55.7333 520.601 51.0568 538.787 51.0782C597.824 51.0782 645.699 99.4537 645.699 159.127C645.69 162.903 645.488 166.676 645.095 170.431C659.326 180.47 670.925 193.772 678.915 209.215C686.904 224.658 691.049 241.79 691 259.165Z" fill="#17B8A6"/>
<path opacity="0.1" d="M249.46 293.287C380.228 293.287 486.236 290.457 486.236 286.967C486.236 283.476 380.228 280.646 249.46 280.646C118.692 280.646 12.6836 283.476 12.6836 286.967C12.6836 290.457 118.692 293.287 249.46 293.287Z" fill="#17B8A6"/>
<g opacity="0.7">
<path d="M161.274 240.319H85.7715V281.85H161.274V240.319Z" fill="#65617D"/>
<path opacity="0.1" d="M135.3 247.542H112.348V252.357H135.3V247.542Z" fill="black"/>
<path opacity="0.1" d="M132.431 248.144H115.217V251.755H132.431V248.144Z" fill="black"/>
<path d="M237.985 240.319H162.482V281.85H237.985V240.319Z" fill="#65617D"/>
<path opacity="0.1" d="M212.011 247.542H189.059V252.357H212.011V247.542Z" fill="black"/>
<path opacity="0.1" d="M209.142 248.144H191.928V251.755H209.142V248.144Z" fill="black"/>
<path d="M161.274 197.583H85.7715V239.115H161.274V197.583Z" fill="#65617D"/>
<path opacity="0.1" d="M135.3 204.806H112.348V209.621H135.3V204.806Z" fill="black"/>
<path opacity="0.1" d="M132.431 205.408H115.217V209.019H132.431V205.408Z" fill="black"/>
<path d="M237.985 197.583H162.482V239.115H237.985V197.583Z" fill="#65617D"/>
<path opacity="0.1" d="M212.011 204.806H189.059V209.621H212.011V204.806Z" fill="black"/>
<path opacity="0.1" d="M209.142 205.408H191.928V209.019H209.142V205.408Z" fill="black"/>
<path d="M161.274 154.246H85.7715V195.777H161.274V154.246Z" fill="#65617D"/>
<path opacity="0.1" d="M135.3 161.469H112.348V166.284H135.3V161.469Z" fill="black"/>
<path opacity="0.1" d="M132.431 162.07H115.217V165.682H132.431V162.07Z" fill="black"/>
<path d="M237.985 154.246H162.482V195.777H237.985V154.246Z" fill="#65617D"/>
<path opacity="0.1" d="M212.011 161.469H189.059V166.284H212.011V161.469Z" fill="black"/>
<path opacity="0.1" d="M209.142 162.07H191.928V165.682H209.142V162.07Z" fill="black"/>
<path d="M237.985 110.908H162.482V152.44H237.985V110.908Z" fill="#65617D"/>
<path opacity="0.1" d="M212.011 118.131H189.059V122.946H212.011V118.131Z" fill="black"/>
<path opacity="0.1" d="M209.142 118.733H191.928V122.344H209.142V118.733Z" fill="black"/>
</g>
<g opacity="0.7">
<path d="M314.694 239.717H239.191V281.249H314.694V239.717Z" fill="#65617D"/>
<path opacity="0.1" d="M288.72 246.94H265.768V251.755H288.72V246.94Z" fill="black"/>
<path opacity="0.1" d="M285.851 247.542H268.637V251.153H285.851V247.542Z" fill="black"/>
<path d="M391.405 239.717H315.902V281.249H391.405V239.717Z" fill="#65617D"/>
<path opacity="0.1" d="M365.431 246.94H342.479V251.755H365.431V246.94Z" fill="black"/>
<path opacity="0.1" d="M362.562 247.542H345.348V251.153H362.562V247.542Z" fill="black"/>
<path d="M314.694 196.981H239.191V238.513H314.694V196.981Z" fill="#65617D"/>
<path opacity="0.1" d="M288.72 204.204H265.768V209.019H288.72V204.204Z" fill="black"/>
<path opacity="0.1" d="M285.851 204.806H268.637V208.418H285.851V204.806Z" fill="black"/>
<path d="M391.405 196.981H315.902V238.513H391.405V196.981Z" fill="#65617D"/>
<path opacity="0.1" d="M365.431 204.204H342.479V209.019H365.431V204.204Z" fill="black"/>
<path opacity="0.1" d="M362.562 204.806H345.348V208.418H362.562V204.806Z" fill="black"/>
<path d="M314.694 153.644H239.191V195.175H314.694V153.644Z" fill="#65617D"/>
<path opacity="0.1" d="M288.72 160.867H265.768V165.682H288.72V160.867Z" fill="black"/>
<path opacity="0.1" d="M285.851 161.469H268.637V165.08H285.851V161.469Z" fill="black"/>
<path d="M391.405 153.644H315.902V195.175H391.405V153.644Z" fill="#65617D"/>
<path opacity="0.1" d="M365.431 160.867H342.479V165.682H365.431V160.867Z" fill="black"/>
<path opacity="0.1" d="M362.562 161.469H345.348V165.08H362.562V161.469Z" fill="black"/>
<path d="M391.405 110.306H315.902V151.838H391.405V110.306Z" fill="#65617D"/>
<path opacity="0.1" d="M365.431 117.529H342.479V122.344H365.431V117.529Z" fill="black"/>
<path opacity="0.1" d="M362.562 118.131H345.348V121.742H362.562V118.131Z" fill="black"/>
</g>
<path opacity="0.1" d="M530.506 0.0662337C530.506 0.0662337 479.654 -2.99147 485.633 32.5212C485.633 32.5212 484.425 38.7991 490.151 41.6462C490.151 41.6462 490.242 39.0158 495.37 39.9127C497.196 40.2143 499.051 40.3031 500.897 40.1775C503.391 40.0059 505.762 39.0298 507.65 37.3967C507.65 37.3967 521.947 31.51 527.504 8.22813C527.504 8.22813 531.618 3.14801 531.454 1.84187L522.871 5.49546C522.871 5.49546 525.807 11.665 523.475 16.7933C523.475 16.7933 523.197 5.71817 521.549 5.95893C521.216 6.01311 517.091 8.09572 517.091 8.09572C517.091 8.09572 522.134 18.8398 518.329 26.6526C518.329 26.6526 519.773 13.4106 515.514 8.87218L509.474 12.3873C509.474 12.3873 515.369 23.4866 511.371 32.5453C511.371 32.5453 512.398 18.6532 508.2 13.242L502.727 17.4975C502.727 17.4975 508.266 28.4403 504.89 35.9521C504.89 35.9521 504.449 19.7788 501.543 18.5569C501.543 18.5569 496.753 22.7703 496.023 24.4917C496.023 24.4917 499.816 32.437 497.46 36.6263C497.46 36.6263 496.017 25.8521 494.833 25.7919C494.833 25.7919 490.061 32.9305 489.566 37.8301C489.566 37.8301 489.771 30.547 493.679 25.1117C493.679 25.1117 489.064 25.9002 486.37 28.8857C486.37 28.8857 487.113 23.8357 494.857 23.3963C494.857 23.3963 498.801 17.9791 499.852 17.648C499.852 17.648 492.157 17.01 487.488 19.0685C487.488 19.0685 491.595 14.3074 501.265 16.4743L506.671 12.0743C506.671 12.0743 496.536 10.696 492.235 12.2188C492.235 12.2188 497.182 8.00542 508.127 11.0812L514.022 7.60215C514.022 7.60215 505.379 5.74826 500.233 6.39833C500.233 6.39833 505.669 3.47906 515.75 6.64511L519.978 4.76113C519.978 4.76113 513.648 3.52119 511.794 3.32256C509.939 3.12393 509.843 2.61833 509.843 2.61833C513.853 1.95193 517.97 2.40827 521.736 3.93652C521.736 3.93652 530.663 0.62601 530.506 0.0662337Z" fill="#17B8A6"/>
<path opacity="0.1" d="M467.785 9.101C467.785 9.101 444.832 7.71661 447.52 23.7696C447.52 23.7696 446.982 26.6046 449.555 27.8926C449.555 27.8926 449.597 26.6888 451.917 27.1041C452.741 27.2423 453.578 27.2827 454.412 27.2245C455.539 27.1482 456.61 26.7064 457.462 25.9665C457.462 25.9665 463.925 23.3121 466.438 12.7907C466.438 12.7907 468.292 10.4914 468.219 9.90155L464.342 11.5508C464.342 11.5508 465.67 14.3436 464.626 16.661C464.626 16.661 464.499 11.6531 463.756 11.7735C463.605 11.7735 461.738 12.7365 461.738 12.7365C461.738 12.7365 464.022 17.594 462.3 21.1272C462.3 21.1272 462.952 15.1442 461.026 13.0917L458.295 14.6807C458.295 14.6807 460.965 19.6946 459.153 23.7876C459.153 23.7876 459.618 17.5097 457.722 15.0659L455.251 16.986C455.251 16.986 457.752 21.9337 456.23 25.3285C456.23 25.3285 456.03 18.0153 454.714 17.4676C454.714 17.4676 452.551 19.3696 452.219 20.1521C452.219 20.1521 453.934 23.7635 452.871 25.6295C452.871 25.6295 452.219 20.76 451.663 20.7419C451.663 20.7419 449.513 23.9682 449.283 26.1591C449.391 24.1144 450.032 22.133 451.144 20.4109C449.899 20.6458 448.751 21.2378 447.84 22.1143C447.84 22.1143 448.178 19.8391 451.675 19.6344C451.675 19.6344 453.487 17.1907 453.934 17.0402C453.934 17.0402 450.455 16.7513 448.347 17.6842C448.347 17.6842 450.202 15.5294 454.575 16.5105L456.991 14.5242C456.991 14.5242 452.412 13.9223 450.467 14.5904C450.467 14.5904 452.702 12.6884 457.649 14.0728L460.307 12.4898C460.307 12.4898 456.405 11.6471 454.073 11.9541C454.073 11.9541 456.532 10.6299 461.086 12.0624L462.989 11.2137C462.989 11.2137 460.126 10.6479 459.286 10.5636C458.446 10.4794 458.404 10.2446 458.404 10.2446C460.217 9.94404 462.079 10.1525 463.78 10.8465C463.78 10.8465 467.857 9.35381 467.785 9.101Z" fill="#17B8A6"/>
<path d="M135.415 388.088C148.828 388.088 159.702 386.255 159.702 383.995C159.702 381.734 148.828 379.902 135.415 379.902C122.001 379.902 111.127 381.734 111.127 383.995C111.127 386.255 122.001 388.088 135.415 388.088Z" fill="#17B8A6"/>
<path d="M145.461 377.301C146.57 376.401 147.377 375.185 147.774 373.816C148.076 372.438 147.484 370.807 146.155 370.271C144.669 369.705 143.081 370.735 141.879 371.77C140.677 372.805 139.294 373.991 137.723 373.768C138.532 373.036 139.138 372.107 139.481 371.072C139.824 370.038 139.892 368.932 139.68 367.863C139.611 367.421 139.424 367.005 139.137 366.66C138.309 365.781 136.817 366.154 135.826 366.846C132.686 369.049 131.81 373.305 131.792 377.127C131.478 375.748 131.743 374.31 131.737 372.913C131.731 371.517 131.339 369.904 130.137 369.164C129.395 368.766 128.562 368.571 127.721 368.598C126.313 368.544 124.737 368.688 123.776 369.717C122.568 370.993 122.888 373.136 123.927 374.533C124.966 375.929 126.555 376.826 128.016 377.795C129.186 378.49 130.183 379.438 130.934 380.57C131.024 380.728 131.097 380.895 131.151 381.069H140.006C141.987 380.064 143.821 378.797 145.461 377.301Z" fill="#17B8A6"/>
<path d="M433.301 205.859C433.251 205.403 433.088 204.967 432.825 204.591C432.562 204.214 432.209 203.909 431.797 203.704C431.45 203.557 431.077 203.481 430.7 203.48C430.324 203.48 429.951 203.554 429.603 203.701C429.256 203.847 428.942 204.061 428.68 204.33C428.417 204.6 428.212 204.919 428.076 205.269L414.661 233.397L411.641 344.148H416.473L418.285 233.643L433.047 207.605C433.314 207.064 433.403 206.453 433.301 205.859Z" fill="#3F3D56"/>
<path opacity="0.1" d="M649.662 369.164C645.704 372.61 641.443 375.695 636.929 378.379C636.859 378.478 636.78 378.57 636.693 378.656C636.214 379.061 635.645 379.346 635.032 379.486C620.064 387.799 603.194 392.116 586.058 392.018H253.955C215.902 388.118 192.684 382.947 192.684 377.271C192.684 372.871 206.624 368.772 230.628 365.341C233.117 364.98 235.712 364.631 238.414 364.294C240.077 364.085 241.778 363.885 243.518 363.692L246.472 363.349C248.662 363.1 250.911 362.858 253.219 362.621H253.406L255.822 362.38C257.863 362.169 259.947 361.971 262.074 361.778L263.62 361.64L267.564 361.291C270.125 361.062 272.743 360.843 275.416 360.635C277.635 360.462 279.89 360.289 282.181 360.117C305.412 358.401 332.194 357.107 361.338 356.271L369.662 355.988L372.464 355.928L378.384 355.795L380.758 355.747L383.252 355.699L385.028 355.669L393.364 355.536L397.646 355.476H398.522C408.649 355.356 418.966 355.294 429.472 355.29C450.238 355.29 470.376 355.536 489.566 356.006C500.583 356.271 511.264 356.608 521.609 357.017H521.706C551.532 358.185 578.23 359.906 600.325 362.043L600.73 362.085C606.402 362.633 611.771 363.217 616.809 363.819C621.551 364.384 626.002 364.98 630.134 365.588C631.565 365.799 632.954 366.016 634.307 366.226L634.652 366.286C640.378 367.207 645.403 368.146 649.662 369.164Z" fill="#17B8A6"/>
<path d="M636.927 378.379C636.857 378.478 636.778 378.57 636.692 378.656C636.213 379.061 635.643 379.346 635.031 379.486C633.809 379.828 632.553 380.03 631.286 380.088H630.905C630.182 380.112 629.457 380.088 628.737 380.016C628.211 379.94 627.68 379.906 627.148 379.914H627.076C626.303 380.022 625.544 380.209 624.811 380.473C623.176 380.92 621.492 381.159 619.797 381.184H619.193C617.297 381.184 615.376 381.117 613.473 381.13C613.165 381.13 612.869 381.13 612.549 381.13C609.287 381.214 606.044 381.731 602.782 381.786H601.737C598.542 381.707 595.274 381.027 592.731 379.101C592.218 378.763 591.802 378.299 591.523 377.753C591.307 377.177 591.234 376.557 591.312 375.947C591.372 374.858 591.584 373.672 592.405 372.938C592.921 372.543 593.513 372.258 594.145 372.101C595.25 371.746 596.361 371.403 597.467 371.06C598.572 370.717 599.835 370.349 601.024 370L601.254 369.928L601.918 369.729L602.347 369.585C602.867 369.419 603.366 369.192 603.833 368.911C604.449 368.522 604.971 368.002 605.361 367.388C605.428 367.28 605.5 367.165 605.561 367.051C605.621 366.936 605.561 366.864 605.518 366.768C605.416 366.016 605.337 365.245 605.204 364.511C603.504 364.118 601.954 363.244 600.741 361.995C599.698 360.965 598.82 359.781 598.137 358.486C596.633 355.669 595.86 352.521 594.737 349.529C593.015 344.979 590.508 340.777 587.984 336.612C585.676 332.772 583.357 328.92 580.735 325.29C578.99 322.883 577.111 320.589 575.384 318.176C570.497 311.441 566.991 303.811 565.067 295.725C564.773 294.173 564.355 292.647 563.817 291.162C562.778 288.634 560.875 286.575 559.401 284.264C557.817 281.773 556.732 278.999 556.206 276.096C555.904 274.447 555.397 272.665 553.748 272.485L553.573 272.828C550.154 279.449 546.644 286.19 541.492 291.595C540.668 292.39 539.914 293.254 539.239 294.178C538.698 295.073 538.213 296.002 537.789 296.958C536.974 298.676 535.891 300.254 534.582 301.635C534.193 302.028 533.768 302.385 533.314 302.701C532.71 303.138 532.039 303.473 531.326 303.694C531.046 303.779 530.759 303.844 530.469 303.886C530.469 303.959 530.499 304.025 530.505 304.097C530.511 304.169 530.541 304.254 530.553 304.332C531.442 309.147 531.061 314.111 529.448 318.736C529.406 318.88 529.357 319.018 529.303 319.163C529.053 319.837 528.782 320.499 528.488 321.149C527.751 322.744 526.875 324.273 526.186 325.892C526.071 326.169 525.957 326.446 525.854 326.723C523.438 333.169 524.042 340.368 523.728 347.296C523.7 348.811 523.52 350.319 523.19 351.798C522.78 353.466 522.121 355.187 521.759 356.909C521.428 358.199 521.401 359.549 521.68 360.851L521.535 360.905C520.889 361.146 520.231 361.363 519.572 361.567V361.658C519.808 363.006 520.037 364.354 520.273 365.697C520.472 366.852 520.708 368.104 521.517 368.923C521.737 369.104 521.94 369.305 522.121 369.525C522.598 370.271 522.176 371.258 522.266 372.143C522.399 373.395 523.559 374.46 523.378 375.706C523.296 376.079 523.125 376.426 522.878 376.717C522.632 377.009 522.318 377.236 521.964 377.38C521.667 377.514 521.354 377.613 521.034 377.675L520.835 377.717C520.472 377.783 520.11 377.819 519.747 377.855C515.247 378.301 510.687 378.746 506.229 377.988C505.347 377.837 504.472 377.638 503.578 377.566C502.448 377.516 501.317 377.562 500.195 377.705C491.926 378.485 483.609 378.646 475.316 378.186C473.159 378.066 470.683 377.717 469.541 375.881C468.593 374.358 468.937 372.39 469.414 370.65C469.551 370.011 469.798 369.4 470.145 368.845C470.184 368.784 470.229 368.728 470.278 368.676C471.389 367.298 473.479 367.213 475.279 367.268L481.162 367.442C481.742 367.489 482.325 367.444 482.89 367.31C483.844 367.033 484.569 366.274 485.463 365.847C486.587 365.311 488 365.245 488.809 364.33L488.912 364.198C489.055 364.004 489.188 363.803 489.311 363.596C489.311 363.554 489.365 363.512 489.395 363.469C489.417 363.432 489.442 363.396 489.468 363.361C490.211 362.386 491.509 362.061 492.566 361.441C492.726 361.348 492.878 361.241 493.019 361.122L493.14 361.014C492.002 360.205 491.01 359.209 490.205 358.07C489.894 357.738 489.665 357.338 489.534 356.903C489.46 356.576 489.486 356.234 489.607 355.922C489.633 355.845 489.665 355.77 489.703 355.699L489.734 355.639C490.144 354.832 490.99 354.104 491.455 353.279C491.473 353.253 491.487 353.225 491.497 353.195C492.138 351.991 492.264 350.125 491.316 349.156C491.799 341.229 493.986 333.506 494.469 325.555C494.662 322.407 494.584 319.247 494.729 316.087C494.874 312.927 495.212 309.863 495.568 306.764C496.366 299.679 498.299 292.739 498.027 285.624C498.004 284.961 498.032 284.297 498.111 283.638C498.108 283.59 498.108 283.542 498.111 283.494C498.305 282.036 498.761 280.625 499.458 279.328C500.334 277.864 501.326 276.471 502.424 275.163C506.139 270.348 510.603 265.533 511.925 259.61C512.608 256.552 514.118 253.753 515.622 251.003C516.51 249.365 517.434 247.686 518.853 246.482C519.622 245.952 520.336 245.347 520.986 244.677C521.976 243.4 522.012 241.637 522.598 240.12C522.9 239.332 523.365 238.609 523.595 237.797C523.595 237.712 523.637 237.634 523.655 237.55C523.789 236.73 523.86 235.901 523.867 235.07C523.867 234.829 523.903 234.595 523.933 234.36C524.286 231.98 524.98 229.663 525.993 227.48C526.12 227.203 526.241 226.92 526.361 226.643C523.575 225.023 521.116 222.898 519.113 220.377C518.434 219.562 517.845 218.676 517.355 217.735C516.111 215.273 515.827 212.468 515.241 209.772C513.84 203.343 510.633 197.288 510.186 190.715C510.053 188.711 510.186 186.64 509.485 184.744C509.292 184.232 509.064 183.733 508.803 183.252C508.694 183.047 508.591 182.842 508.482 182.65L508.362 182.421L508.054 181.819L507.558 182.204C495.201 191.846 482.228 200.677 468.72 208.64L467.56 209.326C466.956 209.617 466.43 210.046 466.026 210.578C465.977 210.657 465.935 210.735 465.893 210.813C465.615 211.385 465.543 212.017 465.289 212.619C464.745 213.997 463.35 214.876 461.924 215.285C459.345 215.946 456.61 215.595 454.284 214.304C453.988 214.154 453.68 213.997 453.414 213.823C452.707 214.213 451.962 214.529 451.191 214.768C448.775 215.466 446.244 215.436 443.743 215.43C441.243 215.424 438.688 215.43 436.32 216.248C434.737 216.784 433.203 217.669 431.56 217.753C431.371 217.765 431.182 217.765 430.993 217.753C430.056 217.646 429.145 217.379 428.299 216.965L427.803 216.742C427.547 216.621 427.297 216.486 427.054 216.339C426.79 216.176 426.545 215.984 426.323 215.767C426.004 215.447 425.771 215.051 425.647 214.617C425.565 214.303 425.565 213.974 425.647 213.66C425.67 213.519 425.743 213.391 425.852 213.299C425.96 213.235 426.084 213.204 426.209 213.209C426.901 213.201 427.593 213.26 428.274 213.383C428.675 213.438 429.079 213.46 429.482 213.449H429.7C430.056 213.411 430.401 213.301 430.712 213.125C431.024 212.949 431.296 212.711 431.512 212.426C431.578 212.338 431.631 212.241 431.669 212.137C431.742 211.968 431.779 211.786 431.778 211.602C431.781 211.555 431.781 211.509 431.778 211.463C431.524 211.349 431.27 211.234 431.029 211.096C430.902 211.03 430.781 210.958 430.66 210.885L430.588 210.837C430.371 210.69 430.169 210.523 429.984 210.338C429.866 210.222 429.763 210.092 429.676 209.952C429.515 209.734 429.395 209.49 429.319 209.23C428.822 209.126 428.306 209.141 427.815 209.272C427.157 209.453 426.493 209.838 425.84 209.97C425.511 210.053 425.165 210.038 424.844 209.928C423.901 209.591 423.569 208.448 423.37 207.466C423.334 207.28 423.291 207.087 423.261 206.895C423.192 206.525 423.192 206.145 423.261 205.775C423.553 204.934 424.11 204.21 424.85 203.711L426.831 202.055L426.976 201.935C426.976 201.772 426.909 201.61 426.885 201.447C426.816 201.075 426.816 200.694 426.885 200.322C427.177 199.482 427.735 198.76 428.474 198.263L432.859 194.586C433.68 193.899 434.574 193.177 435.643 193.105C437.232 192.997 438.501 194.309 439.69 195.362C441.188 196.686 443.006 197.77 445.006 197.902C445.958 197.946 446.91 197.815 447.815 197.517L448.328 197.348C448.219 197.126 448.11 196.903 448.008 196.68C447.833 196.313 447.657 195.94 447.488 195.567C450.061 195.404 452.399 193.996 454.35 192.31C456.301 190.625 457.974 188.633 459.943 186.977C462.069 185.172 464.51 183.829 466.666 182.09C471.679 178.039 475.008 172.086 480.371 168.517C482.232 167.271 484.382 166.278 485.65 164.424C486.043 163.822 486.339 163.22 486.744 162.618C488.03 160.812 490.235 159.982 492.053 158.73C493.871 157.478 495.454 155.642 496.934 153.878C497.985 152.62 499.042 151.362 500.044 150.068C500.968 148.353 501.748 146.559 502.714 144.868C503.534 143.439 504.491 142.092 505.571 140.847C505.819 140.365 506.072 139.884 506.344 139.414C506.616 138.945 506.815 138.626 507.069 138.211C507.244 137.94 507.425 137.681 507.613 137.416C507.063 136.447 506.537 135.61 506.29 135.243L506.169 135.081C505.636 134.515 505.067 133.984 504.466 133.492C503.834 133.396 503.209 133.264 502.593 133.094C498.865 132.076 495.577 129.865 493.235 126.801C490.892 123.737 489.626 119.99 489.631 116.139C489.628 116.121 489.628 116.102 489.631 116.084C489.633 113.326 490.291 110.607 491.552 108.151C491.805 107.658 492.077 107.182 492.373 106.719C492.097 106.632 491.828 106.523 491.57 106.394C491.129 106.177 490.744 105.862 490.446 105.473C490.2 105.126 490.041 104.726 489.981 104.305C489.879 103.313 490.029 102.311 490.416 101.392C490.581 100.949 490.768 100.515 490.978 100.092C490.994 100.067 491.008 100.041 491.02 100.013C493.72 94.5963 499.476 91.2677 505.227 91.0329C511.43 90.7862 517.47 93.6874 522.363 97.8406C523.823 99.0342 525.129 100.403 526.253 101.915C528.808 105.455 529.961 109.981 530.3 114.465C530.427 115.852 530.402 117.249 530.227 118.631C530.163 119.123 530.062 119.61 529.925 120.087C529.847 120.37 529.744 120.653 529.635 120.936C529.526 121.219 529.46 121.345 529.363 121.538V121.568C529.273 121.76 529.17 121.941 529.067 122.122L529.013 122.2L528.935 122.326C528.983 122.441 529.037 122.561 529.092 122.675C529.146 122.79 529.194 122.898 529.255 123.006H529.327C530.535 123.103 531.653 123.271 532.885 123.368C533.464 123.395 534.039 123.484 534.6 123.632C535.808 123.994 536.72 124.872 537.735 125.583C540.248 127.352 543.34 128.177 545.811 130.007C549.435 132.703 551.247 137.157 553.446 141.148C556.345 146.493 561.068 151.043 563.152 156.762C564.095 159.358 565.041 161.95 565.991 164.538C567.846 169.612 569.7 174.71 572.219 179.496C575.722 186.153 580.464 192.136 583.272 199.13C583.551 199.831 584.074 200.408 584.746 200.755C588.573 206.141 591.976 211.814 594.924 217.723C596.476 220.847 597.944 224.091 598.397 227.552C598.75 230.634 598.494 233.754 597.642 236.737C597.16 238.509 596.569 240.25 595.872 241.95C595.601 242.545 595.398 243.169 595.268 243.81C595.268 243.876 595.268 243.942 595.268 244.008C595.147 245.164 595.588 246.308 595.709 247.463C595.81 248.394 595.705 249.335 595.401 250.22C595.353 250.359 595.298 250.497 595.244 250.635C594.869 251.339 594.552 252.072 594.296 252.826C594.274 252.918 594.258 253.01 594.247 253.103C594.048 254.409 594.567 255.728 594.851 257.034C595.914 261.753 595.721 266.664 595.455 271.48C595.316 273.887 597.267 275.819 598.898 277.595C601.918 280.924 604.28 284.818 606.557 288.694C607.8 290.662 608.846 292.747 609.68 294.918C610.544 297.398 610.888 300.022 611.365 302.592C612.906 310.538 617.937 317.556 619.302 325.519C619.935 329.166 621.549 332.573 623.971 335.378C624.701 336.13 625.373 336.934 625.983 337.786C626.403 338.465 626.738 339.192 626.979 339.953C627.573 341.723 627.853 343.582 627.807 345.448C627.711 346.341 627.762 347.244 627.958 348.121C628.526 349.969 630.555 350.986 631.395 352.725C632.234 354.465 631.654 356.692 631.999 358.666C632.269 360.258 633.132 361.69 634.415 362.675C633.931 363.096 633.424 363.482 632.905 363.879C633.385 364.251 633.807 364.693 634.155 365.191C634.393 365.524 634.595 365.881 634.759 366.256C635.556 368.104 635.58 370.301 636.233 372.275C636.511 373.094 636.903 373.961 636.662 374.791C636.558 375.029 636.489 375.281 636.456 375.538C636.456 376.08 637.024 376.435 637.242 376.928C637.321 377.176 637.333 377.441 637.278 377.695C637.223 377.95 637.102 378.185 636.927 378.379Z" fill="url(#paint0_linear_20_6288)"/>
<path d="M509.093 143.634C512.789 142.641 516.081 140.564 519.307 138.511L530.548 131.379C527.497 131.138 524.864 128.971 523.299 126.347C521.735 123.723 521.089 120.671 520.557 117.673C515.725 119.551 511.539 122.735 507.637 126.1C506.091 127.43 502.805 129.441 502.328 131.517C501.85 133.594 504.895 135.279 506.073 136.67C506.477 137.133 510.289 143.303 509.093 143.634Z" fill="#FBBEBE"/>
<path opacity="0.1" d="M509.093 143.634C512.789 142.641 516.081 140.564 519.307 138.511L530.548 131.379C527.497 131.138 524.864 128.971 523.299 126.347C521.735 123.723 521.089 120.671 520.557 117.673C515.725 119.551 511.539 122.735 507.637 126.1C506.091 127.43 502.805 129.441 502.328 131.517C501.85 133.594 504.895 135.279 506.073 136.67C506.477 137.133 510.289 143.303 509.093 143.634Z" fill="black"/>
<path d="M447.669 202.549C445.688 203.56 443.58 204.595 441.363 204.451C439.37 204.325 437.552 203.247 436.054 201.929C434.846 200.882 433.602 199.575 432.013 199.684C430.95 199.756 430.056 200.472 429.235 201.152L424.856 204.806C424.119 205.3 423.561 206.018 423.267 206.853C423.181 207.419 423.215 207.998 423.37 208.55C423.569 209.525 423.901 210.663 424.843 210.994C425.786 211.325 426.813 210.614 427.809 210.344C428.418 210.189 429.058 210.2 429.66 210.377C430.263 210.554 430.807 210.89 431.234 211.349C431.59 211.698 431.805 212.165 431.838 212.661C431.838 213.75 430.63 214.467 429.519 214.521C428.407 214.575 427.344 214.214 426.245 214.28C426.178 214.272 426.111 214.277 426.047 214.295C425.982 214.313 425.922 214.343 425.87 214.385C425.817 214.426 425.774 214.478 425.742 214.536C425.71 214.595 425.69 214.659 425.683 214.726C425.615 215.106 425.644 215.497 425.767 215.863C425.891 216.229 426.105 216.558 426.39 216.82C426.964 217.342 427.632 217.751 428.359 218.024C429.204 218.44 430.116 218.705 431.053 218.807C432.907 218.927 434.611 217.904 436.368 217.308C438.736 216.513 441.285 216.489 443.786 216.495C446.286 216.501 448.823 216.537 451.221 215.839C453.619 215.141 455.896 213.594 456.832 211.289C456.943 211.074 456.979 210.828 456.935 210.59C456.842 210.337 456.662 210.124 456.428 209.989C453.057 207.503 451.692 204.481 447.899 202.693L447.669 202.549Z" fill="#FBBEBE"/>
<path opacity="0.1" d="M447.669 202.549C445.688 203.56 443.58 204.595 441.363 204.451C439.37 204.325 437.552 203.247 436.054 201.929C434.846 200.882 433.602 199.575 432.013 199.684C430.95 199.756 430.056 200.472 429.235 201.152L424.856 204.806C424.119 205.3 423.561 206.018 423.267 206.853C423.181 207.419 423.215 207.998 423.37 208.55C423.569 209.525 423.901 210.663 424.843 210.994C425.786 211.325 426.813 210.614 427.809 210.344C428.418 210.189 429.058 210.2 429.66 210.377C430.263 210.554 430.807 210.89 431.234 211.349C431.59 211.698 431.805 212.165 431.838 212.661C431.838 213.75 430.63 214.467 429.519 214.521C428.407 214.575 427.344 214.214 426.245 214.28C426.178 214.272 426.111 214.277 426.047 214.295C425.982 214.313 425.922 214.343 425.87 214.385C425.817 214.426 425.774 214.478 425.742 214.536C425.71 214.595 425.69 214.659 425.683 214.726C425.615 215.106 425.644 215.497 425.767 215.863C425.891 216.229 426.105 216.558 426.39 216.82C426.964 217.342 427.632 217.751 428.359 218.024C429.204 218.44 430.116 218.705 431.053 218.807C432.907 218.927 434.611 217.904 436.368 217.308C438.736 216.513 441.285 216.489 443.786 216.495C446.286 216.501 448.823 216.537 451.221 215.839C453.619 215.141 455.896 213.594 456.832 211.289C456.943 211.074 456.979 210.828 456.935 210.59C456.842 210.337 456.662 210.124 456.428 209.989C453.057 207.503 451.692 204.481 447.899 202.693L447.669 202.549Z" fill="black"/>
<path d="M518.402 138.355C517.465 137.752 516.401 137.372 515.293 137.244C514.185 137.116 513.062 137.242 512.011 137.615C509.907 138.37 508.019 139.624 506.509 141.268C505.001 142.8 503.696 144.518 502.625 146.379C501.598 148.184 500.813 150.074 499.786 151.874C497.974 155.094 495.606 157.935 493.226 160.752C491.747 162.504 490.249 164.279 488.352 165.568C486.455 166.856 484.335 167.644 483.049 169.432C482.644 169.998 482.354 170.636 481.955 171.207C480.693 173.049 478.549 174.036 476.682 175.27C471.331 178.822 468.002 184.732 463.001 188.759C460.845 190.493 458.411 191.853 456.29 193.623C454.315 195.266 452.666 197.234 450.697 198.919C448.728 200.605 446.415 201.995 443.848 202.152C445.563 205.962 447.611 209.7 450.552 212.667C453.494 215.634 457.903 217.53 461.92 216.369C463.345 215.959 464.741 215.093 465.284 213.72C465.455 213.015 465.694 212.328 465.997 211.668C466.401 211.138 466.924 210.711 467.525 210.422C483.65 201.043 499.02 190.431 513.497 178.683C517.381 175.529 521.235 172.706 525.221 169.655C526.651 168.644 527.972 167.491 529.166 166.212C530.828 164.233 531.867 161.809 532.15 159.244C532.434 156.679 531.95 154.088 530.76 151.796C529.691 150.043 528.466 148.389 527.1 146.854C524.614 143.629 521.686 140.768 518.402 138.355Z" fill="#17B8A6"/>
<path opacity="0.1" d="M518.402 138.355C517.465 137.752 516.401 137.372 515.293 137.244C514.185 137.116 513.062 137.242 512.011 137.615C509.907 138.37 508.019 139.624 506.509 141.268C505.001 142.8 503.696 144.518 502.625 146.379C501.598 148.184 500.813 150.074 499.786 151.874C497.974 155.094 495.606 157.935 493.226 160.752C491.747 162.504 490.249 164.279 488.352 165.568C486.455 166.856 484.335 167.644 483.049 169.432C482.644 169.998 482.354 170.636 481.955 171.207C480.693 173.049 478.549 174.036 476.682 175.27C471.331 178.822 468.002 184.732 463.001 188.759C460.845 190.493 458.411 191.853 456.29 193.623C454.315 195.266 452.666 197.234 450.697 198.919C448.728 200.605 446.415 201.995 443.848 202.152C445.563 205.962 447.611 209.7 450.552 212.667C453.494 215.634 457.903 217.53 461.92 216.369C463.345 215.959 464.741 215.093 465.284 213.72C465.455 213.015 465.694 212.328 465.997 211.668C466.401 211.138 466.924 210.711 467.525 210.422C483.65 201.043 499.02 190.431 513.497 178.683C517.381 175.529 521.235 172.706 525.221 169.655C526.651 168.644 527.972 167.491 529.166 166.212C530.828 164.233 531.867 161.809 532.15 159.244C532.434 156.679 531.95 154.088 530.76 151.796C529.691 150.043 528.466 148.389 527.1 146.854C524.614 143.629 521.686 140.768 518.402 138.355Z" fill="black"/>
<path d="M492.446 361.646C491.389 362.248 490.09 362.585 489.347 363.56C489.106 363.873 488.942 364.24 488.683 364.541C487.879 365.48 486.454 365.522 485.336 366.058C484.443 366.479 483.718 367.262 482.769 367.508C482.202 367.643 481.617 367.687 481.036 367.641L475.165 367.466C473.304 367.412 471.124 367.508 470.043 369.019C469.691 369.573 469.442 370.184 469.306 370.825C468.853 372.552 468.484 374.509 469.433 376.025C470.568 377.831 473.057 378.198 475.201 378.319C483.485 378.775 491.791 378.614 500.05 377.837C501.168 377.695 502.295 377.648 503.421 377.699C504.315 377.771 505.191 377.97 506.073 378.12C510.524 378.872 515.078 378.433 519.572 377.988C520.332 377.951 521.08 377.793 521.789 377.518C522.142 377.375 522.454 377.148 522.699 376.858C522.944 376.567 523.115 376.222 523.196 375.851C523.384 374.611 522.218 373.558 522.091 372.312C522.001 371.433 522.423 370.452 521.94 369.705C521.759 369.485 521.557 369.284 521.336 369.103C520.527 368.267 520.291 367.045 520.092 365.901L519.035 359.72C519.005 359.284 518.826 358.872 518.527 358.552C518.305 358.393 518.049 358.287 517.778 358.245C513.176 357.21 508.458 358.155 503.886 358.733C501.533 359.076 499.152 359.195 496.777 359.088C495.75 359.021 495.351 358.901 494.584 359.569C493.817 360.237 493.406 361.086 492.446 361.646Z" fill="#3F3D56"/>
<path d="M603.592 369.085C602.785 369.535 601.919 369.873 601.019 370.09C598.647 370.781 596.28 371.501 593.916 372.251C593.287 372.406 592.697 372.689 592.182 373.082C591.361 373.804 591.15 374.984 591.089 376.091C591.011 376.702 591.083 377.321 591.301 377.897C591.584 378.437 591.999 378.897 592.509 379.233C595.215 381.274 598.748 381.906 602.143 381.906C605.537 381.906 608.908 381.334 612.302 381.244C616.404 381.135 620.614 381.713 624.558 380.57C625.311 380.292 626.093 380.102 626.889 380.004C627.419 379.996 627.948 380.03 628.472 380.106C630.587 380.315 632.723 380.121 634.766 379.534C635.381 379.399 635.953 379.116 636.433 378.71C636.671 378.505 636.84 378.233 636.92 377.93C637 377.627 636.986 377.307 636.88 377.012C636.663 376.525 636.107 376.17 636.101 375.634C636.129 375.377 636.197 375.125 636.3 374.888C636.548 374.063 636.149 373.202 635.871 372.39C635.092 370.066 635.219 367.394 633.824 365.377C632.428 363.361 629.867 362.53 627.433 362.211C625.455 361.933 623.443 361.99 621.483 362.38C619.279 362.849 617.219 363.831 615.057 364.457C612.547 365.176 609.925 365.423 607.325 365.185C605.598 365.04 606.19 365.311 605.604 366.756C605.188 367.719 604.486 368.532 603.592 369.085Z" fill="#3F3D56"/>
<path d="M507.075 135.285C516.749 135.285 524.592 127.47 524.592 117.83C524.592 108.19 516.749 100.375 507.075 100.375C497.401 100.375 489.559 108.19 489.559 117.83C489.559 127.47 497.401 135.285 507.075 135.285Z" fill="#FBBEBE"/>
<path d="M634.065 362.844C628.629 367.496 621.29 369.531 614.133 369.603C611.113 369.633 607.978 369.308 605.405 367.749C605.223 366.762 605.151 365.697 604.97 364.709C601.847 364.059 599.425 361.525 597.915 358.721C596.405 355.916 595.638 352.798 594.514 349.824C592.799 345.298 590.286 341.127 587.773 336.986C585.466 333.169 583.152 329.341 580.525 325.736C578.785 323.328 576.901 321.065 575.179 318.663C570.302 311.978 566.802 304.397 564.881 296.357C564.587 294.815 564.169 293.299 563.631 291.824C562.592 289.308 560.689 287.262 559.221 284.968C557.638 282.494 556.553 279.736 556.026 276.849C555.73 275.211 555.223 273.442 553.574 273.273C550.106 279.985 546.573 286.804 541.33 292.264C540.506 293.052 539.752 293.91 539.077 294.828C538.536 295.719 538.051 296.644 537.627 297.597C536.814 299.305 535.734 300.873 534.426 302.243C533.33 303.411 531.886 304.197 530.307 304.482C531.471 310.266 530.778 316.268 528.325 321.637C527.595 323.226 526.719 324.743 526.03 326.35C523.215 332.971 523.868 340.44 523.572 347.621C523.546 349.126 523.368 350.624 523.04 352.093C522.309 355.031 520.799 358.155 521.53 361.092C513.956 363.975 505.542 363.795 497.52 362.579C495.952 362.436 494.428 361.975 493.045 361.224C491.907 360.422 490.914 359.433 490.109 358.299C489.799 357.969 489.569 357.571 489.439 357.137C489.125 355.765 490.647 354.73 491.353 353.526C492.06 352.322 492.187 350.414 491.214 349.427C491.698 341.548 493.884 333.856 494.367 325.953C494.561 322.823 494.482 319.681 494.627 316.545C494.772 313.409 495.11 310.357 495.461 307.275C496.258 300.239 498.191 293.341 497.919 286.269C497.836 284.092 498.339 281.933 499.375 280.015C500.248 278.557 501.238 277.172 502.334 275.874C506.043 271.1 510.501 266.315 511.824 260.423C512.506 257.383 514.016 254.602 515.514 251.869C516.402 250.238 517.326 248.571 518.74 247.373C519.509 246.843 520.223 246.238 520.872 245.567C521.862 244.297 521.899 242.558 522.485 241.041C522.787 240.259 523.252 239.536 523.475 238.73C523.659 237.839 523.751 236.931 523.747 236.021C523.94 233.108 525.064 230.291 526.248 227.624C523.463 226.018 521.005 223.907 518.999 221.401C518.326 220.587 517.739 219.705 517.248 218.77C516.003 216.327 515.72 213.54 515.134 210.861C513.738 204.469 510.531 198.456 510.084 191.925C509.951 189.933 510.084 187.874 509.389 185.99C509.069 185.193 508.694 184.419 508.266 183.673C507.845 182.94 507.524 182.155 507.312 181.338C506.925 179.562 507.457 177.726 507.312 175.92C507.167 174.325 506.484 172.833 506.146 171.274C505.801 169.245 505.742 167.179 505.971 165.134C506.122 162.727 506.647 160.241 506.442 157.863C506.109 153.929 506.612 149.969 507.918 146.242C509.224 142.514 511.304 139.103 514.022 136.23L514.161 136.092C515.315 134.888 516.577 133.823 517.616 132.547C519.03 130.837 520.032 128.827 521.524 127.166C522.177 126.425 522.913 125.763 523.56 125.017C524.153 124.234 524.809 123.501 525.523 122.826C525.884 122.492 526.321 122.251 526.797 122.124C527.273 121.997 527.773 121.988 528.253 122.098C528.374 122.995 528.656 123.864 529.087 124.662C530.343 124.758 531.46 124.933 532.711 125.029C533.29 125.056 533.865 125.145 534.426 125.294C535.604 125.649 536.546 126.498 537.555 127.226C540.068 128.989 543.154 129.808 545.625 131.626C549.249 134.304 551.061 138.728 553.247 142.695C556.141 148.01 560.858 152.53 562.912 158.212L565.745 165.941C567.599 170.985 569.453 176.047 571.966 180.802C575.463 187.423 580.199 193.388 583.008 200.316C583.288 201.011 583.809 201.583 584.475 201.929C588.3 207.274 591.699 212.909 594.641 218.782C596.193 221.888 597.661 225.114 598.108 228.551C598.766 233.409 597.438 238.32 595.589 242.859C595.291 243.509 595.087 244.198 594.985 244.905C594.864 246.055 595.305 247.187 595.426 248.336C595.543 249.41 595.383 250.495 594.961 251.49C594.585 252.189 594.268 252.918 594.013 253.669C593.687 255.054 594.266 256.462 594.581 257.846C595.644 262.535 595.45 267.393 595.185 272.196C595.046 274.604 596.997 276.512 598.621 278.275C601.642 281.58 603.997 285.444 606.274 289.302C607.512 291.259 608.556 293.331 609.391 295.49C610.255 297.952 610.599 300.558 611.076 303.116C612.611 311.007 617.636 317.983 619.001 325.898C619.633 329.524 621.245 332.91 623.664 335.691C624.393 336.444 625.065 337.248 625.676 338.099C626.093 338.774 626.426 339.498 626.666 340.254C627.26 342.011 627.54 343.859 627.494 345.713C627.398 346.6 627.449 347.497 627.645 348.368C628.212 350.203 630.242 351.215 631.076 352.942C631.909 354.67 631.335 356.885 631.68 358.847C631.94 360.432 632.792 361.859 634.065 362.844Z" fill="#17B8A6"/>
<path d="M451.294 197.132C449.313 198.143 447.205 199.178 444.988 199.034C442.995 198.907 441.177 197.83 439.679 196.512C438.471 195.464 437.227 194.158 435.638 194.267C434.575 194.339 433.681 195.055 432.86 195.735L428.481 199.389C427.744 199.883 427.186 200.6 426.892 201.435C426.806 202.002 426.84 202.581 426.995 203.133C427.194 204.108 427.526 205.245 428.468 205.576C429.411 205.908 430.438 205.197 431.434 204.926C432.043 204.771 432.683 204.783 433.285 204.96C433.888 205.137 434.432 205.472 434.859 205.932C435.215 206.28 435.43 206.747 435.463 207.244C435.463 208.333 434.255 209.049 433.144 209.104C432.032 209.158 430.969 208.797 429.87 208.863C429.803 208.855 429.736 208.859 429.672 208.877C429.607 208.895 429.547 208.926 429.495 208.968C429.442 209.009 429.399 209.061 429.367 209.119C429.335 209.178 429.315 209.242 429.308 209.308C429.24 209.688 429.269 210.08 429.392 210.446C429.516 210.812 429.73 211.141 430.015 211.403C430.589 211.925 431.257 212.333 431.984 212.607C432.829 213.023 433.741 213.288 434.678 213.389C436.532 213.51 438.236 212.486 439.993 211.891C442.361 211.096 444.91 211.072 447.411 211.078C449.911 211.084 452.448 211.12 454.846 210.422C457.244 209.724 459.521 208.177 460.457 205.871C460.568 205.656 460.604 205.411 460.56 205.173C460.467 204.92 460.287 204.707 460.053 204.571C456.682 202.085 455.317 199.064 451.524 197.276L451.294 197.132Z" fill="#FBBEBE"/>
<path d="M498.553 107.104C497.508 107.272 496.62 107.977 495.629 108.368C494.964 108.625 494.252 108.739 493.54 108.702C492.828 108.664 492.132 108.477 491.498 108.151C491.056 107.937 490.669 107.624 490.368 107.236C489.559 106.117 489.843 104.492 490.338 103.179C492.682 96.9738 498.939 93.1336 505.137 92.8868C511.334 92.64 517.362 95.5232 522.248 99.6462C523.702 100.836 525.006 102.196 526.132 103.697C528.681 107.218 529.835 111.715 530.173 116.169C530.376 118.038 530.251 119.928 529.805 121.754C529.59 122.642 529.198 123.478 528.653 124.211C528.107 124.944 527.418 125.56 526.628 126.022C524.9 126.901 522.828 126.624 521.083 125.781C519.337 124.938 517.839 123.608 516.341 122.338C515.663 121.686 514.859 121.177 513.979 120.839C513.541 120.684 513.066 120.658 512.613 120.764C512.159 120.871 511.747 121.106 511.424 121.441C510.615 122.41 510.82 124 510.083 125.053C509.347 126.106 507.812 126.257 506.52 126.257C505.227 126.257 503.916 126.148 503.143 125.125C502.437 124.198 502.539 122.844 502.805 121.676C503.071 120.508 503.524 119.353 503.409 118.155C503.161 115.747 501.047 114.267 500.389 112.052C499.96 110.601 500.902 109.987 500.806 108.675C500.733 107.519 499.489 106.953 498.553 107.104Z" fill="#3F3D56"/>
<path opacity="0.1" d="M553.585 273.123V273.273C550.118 279.985 546.584 286.804 541.342 292.263C540.518 293.052 539.764 293.91 539.089 294.828C538.547 295.719 538.063 296.644 537.639 297.596C536.826 299.305 535.745 300.873 534.438 302.243L530.064 304.422L543.957 232.193L553.585 273.123Z" fill="black"/>
<path opacity="0.1" d="M533.392 163.804C532.199 165.083 530.878 166.237 529.448 167.247C525.462 170.256 521.596 173.097 517.724 176.275C514.603 178.807 511.438 181.287 508.229 183.715C507.808 182.982 507.487 182.197 507.275 181.38C506.888 179.604 507.42 177.768 507.275 175.962C507.13 174.367 506.447 172.875 506.109 171.316C505.764 169.287 505.705 167.221 505.934 165.176C506.085 162.769 506.61 160.283 506.405 157.905C506.071 153.961 506.576 149.992 507.889 146.257C509.202 142.521 511.291 139.105 514.021 136.23L514.16 136.092C514.81 135.715 515.499 135.409 516.214 135.177C517.267 134.809 518.391 134.687 519.499 134.821C520.607 134.954 521.67 135.34 522.605 135.947C525.889 138.361 528.817 141.222 531.303 144.446C532.669 145.981 533.894 147.635 534.963 149.388C536.156 151.678 536.644 154.268 536.365 156.833C536.085 159.397 535.051 161.823 533.392 163.804Z" fill="black"/>
<path d="M522.025 132.938C521.088 132.335 520.024 131.955 518.916 131.827C517.808 131.698 516.685 131.825 515.634 132.198C513.53 132.953 511.642 134.207 510.132 135.851C508.624 137.383 507.319 139.1 506.248 140.961C505.221 142.767 504.436 144.657 503.409 146.457C501.597 149.677 499.229 152.518 496.849 155.335C495.37 157.087 493.872 158.862 491.975 160.15C490.078 161.438 487.958 162.227 486.672 164.015C486.267 164.58 485.977 165.218 485.578 165.79C484.316 167.632 482.172 168.619 480.305 169.853C474.954 173.404 471.626 179.315 466.624 183.342C464.468 185.075 462.034 186.436 459.914 188.205C457.938 189.849 456.289 191.817 454.32 193.502C452.351 195.187 450.038 196.578 447.471 196.734C449.186 200.544 451.234 204.282 454.175 207.25C457.117 210.217 461.526 212.113 465.543 210.952C466.968 210.542 468.364 209.675 468.907 208.303C469.078 207.598 469.317 206.91 469.62 206.251C470.024 205.721 470.547 205.294 471.148 205.005C487.273 195.625 502.643 185.014 517.12 173.266C521.004 170.112 524.858 167.289 528.844 164.237C530.274 163.227 531.595 162.073 532.789 160.794C534.451 158.816 535.49 156.392 535.773 153.827C536.057 151.262 535.574 148.67 534.383 146.379C533.314 144.625 532.089 142.971 530.723 141.437C528.237 138.212 525.309 135.351 522.025 132.938Z" fill="#17B8A6"/>
<g opacity="0.1">
<path d="M507.728 123.831C506.52 123.831 505.125 123.723 504.352 122.699C503.651 121.772 503.747 120.418 504.013 119.25C504.279 118.083 504.732 116.927 504.617 115.729C504.37 113.322 502.256 111.841 501.597 109.626C501.168 108.175 502.111 107.561 502.014 106.249C501.929 105.112 500.691 104.546 499.755 104.696C498.71 104.865 497.822 105.569 496.831 105.96C496.167 106.218 495.455 106.331 494.742 106.294C494.03 106.257 493.334 106.069 492.7 105.744C492.258 105.529 491.871 105.216 491.57 104.829C490.761 103.709 491.045 102.084 491.54 100.772C491.54 100.724 491.583 100.681 491.601 100.633C491.095 101.439 490.671 102.291 490.332 103.179C489.837 104.492 489.553 106.117 490.362 107.236C490.663 107.624 491.05 107.937 491.492 108.151C492.126 108.477 492.822 108.664 493.534 108.702C494.247 108.739 494.959 108.625 495.623 108.368C496.614 107.977 497.502 107.272 498.547 107.104C499.483 106.953 500.721 107.519 500.806 108.657C500.903 109.969 499.96 110.583 500.389 112.033C501.035 114.249 503.15 115.753 503.409 118.137C503.53 119.341 503.089 120.496 502.805 121.658C502.521 122.82 502.443 124.18 503.143 125.107C503.917 126.13 505.3 126.227 506.52 126.239C507.74 126.251 509.311 126.166 510.084 125.035C510.417 124.466 510.637 123.839 510.73 123.187C509.908 123.771 508.761 123.843 507.728 123.831Z" fill="black"/>
<path d="M527.835 123.614C526.108 124.493 524.036 124.216 522.29 123.374C520.545 122.531 519.047 121.201 517.549 119.931C516.87 119.279 516.067 118.769 515.187 118.432C514.748 118.276 514.274 118.25 513.82 118.357C513.367 118.464 512.954 118.699 512.632 119.034C512.222 119.638 511.963 120.332 511.877 121.056C512.191 120.872 512.541 120.756 512.904 120.718C513.266 120.68 513.633 120.719 513.979 120.833C514.859 121.171 515.662 121.68 516.341 122.332C517.839 123.602 519.361 124.939 521.082 125.775C522.804 126.612 524.9 126.895 526.627 126.016C528.155 125.125 529.268 123.669 529.726 121.965C529.229 122.651 528.583 123.215 527.835 123.614Z" fill="black"/>
</g>
<path d="M377.513 382.369C387.521 382.369 395.634 374.285 395.634 364.312C395.634 354.339 387.521 346.255 377.513 346.255C367.505 346.255 359.393 354.339 359.393 364.312C359.393 374.285 367.505 382.369 377.513 382.369Z" fill="#3F3D56"/>
<path opacity="0.1" d="M377.513 382.369C387.521 382.369 395.634 374.285 395.634 364.312C395.634 354.339 387.521 346.255 377.513 346.255C367.505 346.255 359.393 354.339 359.393 364.312C359.393 374.285 367.505 382.369 377.513 382.369Z" fill="black"/>
<path d="M377.514 375.748C383.852 375.748 388.99 370.628 388.99 364.312C388.99 357.996 383.852 352.876 377.514 352.876C371.175 352.876 366.037 357.996 366.037 364.312C366.037 370.628 371.175 375.748 377.514 375.748Z" fill="#65617D"/>
<path opacity="0.1" d="M377.514 375.748C383.852 375.748 388.99 370.628 388.99 364.312C388.99 357.996 383.852 352.876 377.514 352.876C371.175 352.876 366.037 357.996 366.037 364.312C366.037 370.628 371.175 375.748 377.514 375.748Z" fill="black"/>
<path d="M363.621 336.022L375.508 362.807C375.685 363.209 375.974 363.552 376.34 363.795C376.706 364.038 377.134 364.173 377.574 364.181C378.014 364.19 378.448 364.074 378.823 363.845C379.199 363.616 379.501 363.286 379.694 362.892L393.822 334.217L363.621 336.022Z" fill="#3F3D56"/>
<path opacity="0.1" d="M363.621 336.022L375.508 362.807C375.685 363.209 375.974 363.552 376.34 363.795C376.706 364.038 377.134 364.173 377.574 364.181C378.014 364.19 378.448 364.074 378.823 363.845C379.199 363.616 379.501 363.286 379.694 362.892L393.822 334.217L363.621 336.022Z" fill="black"/>
<path d="M264.562 382.369C274.57 382.369 282.683 374.285 282.683 364.312C282.683 354.339 274.57 346.255 264.562 346.255C254.554 346.255 246.441 354.339 246.441 364.312C246.441 374.285 254.554 382.369 264.562 382.369Z" fill="#3F3D56"/>
<path opacity="0.1" d="M264.562 382.369C274.57 382.369 282.683 374.285 282.683 364.312C282.683 354.339 274.57 346.255 264.562 346.255C254.554 346.255 246.441 354.339 246.441 364.312C246.441 374.285 254.554 382.369 264.562 382.369Z" fill="black"/>
<path d="M264.56 375.748C270.899 375.748 276.037 370.628 276.037 364.312C276.037 357.996 270.899 352.876 264.56 352.876C258.222 352.876 253.084 357.996 253.084 364.312C253.084 370.628 258.222 375.748 264.56 375.748Z" fill="#65617D"/>
<path opacity="0.1" d="M264.56 375.748C270.899 375.748 276.037 370.628 276.037 364.312C276.037 357.996 270.899 352.876 264.56 352.876C258.222 352.876 253.084 357.996 253.084 364.312C253.084 370.628 258.222 375.748 264.56 375.748Z" fill="black"/>
<path d="M250.668 336.022L262.555 362.807C262.732 363.209 263.021 363.552 263.387 363.795C263.753 364.038 264.181 364.173 264.621 364.181C265.061 364.19 265.494 364.074 265.87 363.845C266.246 363.616 266.548 363.286 266.741 362.892L280.869 334.217L250.668 336.022Z" fill="#3F3D56"/>
<path opacity="0.1" d="M250.668 336.022L262.555 362.807C262.732 363.209 263.021 363.552 263.387 363.795C263.753 364.038 264.181 364.173 264.621 364.181C265.061 364.19 265.494 364.074 265.87 363.845C266.246 363.616 266.548 363.286 266.741 362.892L280.869 334.217L250.668 336.022Z" fill="black"/>
<path d="M436.32 207.063C436.27 206.607 436.106 206.171 435.844 205.794C435.581 205.418 435.227 205.113 434.816 204.908C434.469 204.761 434.096 204.685 433.719 204.684C433.343 204.683 432.969 204.758 432.622 204.904C432.275 205.05 431.961 205.265 431.699 205.534C431.436 205.804 431.231 206.123 431.095 206.473L420.7 232.193L417.68 347.76H422.512L424.324 232.44L436.066 208.809C436.333 208.268 436.422 207.657 436.32 207.063Z" fill="#3F3D56"/>
<path d="M222.582 338.731L238.891 328.498L414.963 326.994L419.493 338.731H222.582Z" fill="#17B8A6"/>
<path d="M222.582 349.565V338.731L422.682 336.805L422.489 344.148H226.206V349.565H222.582Z" fill="#3F3D56"/>
<path d="M247.951 388.69C257.958 388.69 266.071 380.605 266.071 370.632C266.071 360.659 257.958 352.575 247.951 352.575C237.943 352.575 229.83 360.659 229.83 370.632C229.83 380.605 237.943 388.69 247.951 388.69Z" fill="#3F3D56"/>
<path d="M247.951 382.068C254.289 382.068 259.427 376.948 259.427 370.632C259.427 364.316 254.289 359.196 247.951 359.196C241.613 359.196 236.475 364.316 236.475 370.632C236.475 376.948 241.613 382.068 247.951 382.068Z" fill="#65617D"/>
<path d="M234.059 342.342L245.946 369.127C246.123 369.529 246.411 369.872 246.777 370.115C247.143 370.359 247.572 370.493 248.012 370.501C248.452 370.51 248.885 370.394 249.261 370.165C249.636 369.937 249.938 369.606 250.132 369.212L264.26 340.537L234.059 342.342Z" fill="#3F3D56"/>
<path d="M388.687 388.69C398.695 388.69 406.808 380.605 406.808 370.632C406.808 360.659 398.695 352.575 388.687 352.575C378.679 352.575 370.566 360.659 370.566 370.632C370.566 380.605 378.679 388.69 388.687 388.69Z" fill="#3F3D56"/>
<path d="M388.687 382.068C395.026 382.068 400.164 376.948 400.164 370.632C400.164 364.316 395.026 359.196 388.687 359.196C382.349 359.196 377.211 364.316 377.211 370.632C377.211 376.948 382.349 382.068 388.687 382.068Z" fill="#65617D"/>
<path d="M374.795 342.342L386.682 369.127C386.859 369.529 387.148 369.872 387.514 370.115C387.88 370.359 388.308 370.493 388.748 370.501C389.188 370.51 389.621 370.394 389.997 370.165C390.373 369.937 390.675 369.606 390.868 369.212L404.996 340.537L374.795 342.342Z" fill="#3F3D56"/>
<path d="M320.735 291.481H245.232V333.013H320.735V291.481Z" fill="#65617D"/>
<path opacity="0.1" d="M294.761 298.704H271.809V303.519H294.761V298.704Z" fill="black"/>
<path opacity="0.1" d="M291.892 299.306H274.678V302.917H291.892V299.306Z" fill="black"/>
<path d="M397.446 291.481H321.943V333.013H397.446V291.481Z" fill="#65617D"/>
<path opacity="0.1" d="M371.472 298.704H348.52V303.519H371.472V298.704Z" fill="black"/>
<path opacity="0.1" d="M368.603 299.306H351.389V302.917H368.603V299.306Z" fill="black"/>
<path d="M320.735 248.745H245.232V290.277H320.735V248.745Z" fill="#65617D"/>
<path opacity="0.1" d="M294.761 255.968H271.809V260.784H294.761V255.968Z" fill="black"/>
<path opacity="0.1" d="M291.892 256.57H274.678V260.182H291.892V256.57Z" fill="black"/>
<path d="M397.446 248.745H321.943V290.277H397.446V248.745Z" fill="#65617D"/>
<path opacity="0.1" d="M371.472 255.968H348.52V260.784H371.472V255.968Z" fill="black"/>
<path opacity="0.1" d="M368.603 256.57H351.389V260.182H368.603V256.57Z" fill="black"/>
<path d="M320.735 205.408H245.232V246.94H320.735V205.408Z" fill="#65617D"/>
<path opacity="0.1" d="M294.761 212.631H271.809V217.446H294.761V212.631Z" fill="black"/>
<path opacity="0.1" d="M291.892 213.233H274.678V216.844H291.892V213.233Z" fill="black"/>
<path d="M397.446 205.408H321.943V246.94H397.446V205.408Z" fill="#65617D"/>
<path opacity="0.1" d="M371.472 212.631H348.52V217.446H371.472V212.631Z" fill="black"/>
<path opacity="0.1" d="M368.603 213.233H351.389V216.844H368.603V213.233Z" fill="black"/>
<path d="M397.446 162.07H321.943V203.602H397.446V162.07Z" fill="#65617D"/>
<path opacity="0.1" d="M371.472 169.293H348.52V174.108H371.472V169.293Z" fill="black"/>
<path opacity="0.1" d="M368.603 169.895H351.389V173.506H368.603V169.895Z" fill="black"/>
</g>
<defs>
<linearGradient id="paint0_linear_20_6288" x1="530.227" y1="381.852" x2="530.227" y2="91.045" gradientUnits="userSpaceOnUse">
<stop stop-color="#808080" stop-opacity="0.25"/>
<stop offset="0.54" stop-color="#808080" stop-opacity="0.12"/>
<stop offset="1" stop-color="#808080" stop-opacity="0.1"/>
</linearGradient>
<clipPath id="clip0_20_6288">
<rect width="691" height="392" fill="white"/>
</clipPath>
</defs>
</svg>
